<svg id="Lager_1" data-name="Lager 1" xmlns="http://www.w3.org/2000/svg" viewBox="0 0 472 204.01">
  <defs>
    <style>
      .cls-1 {
        fill: #baa13d;
      }
    </style>
  </defs>
  <path class="cls-1" d="M221.52,183H207.13c-.51,0-.87-.57-.87-1.12,0-.19,7.65-24.88,7.65-24.88.28-.92.3-.94.41-.94h0c.12,0,.13,0,.4.94,0,0,7.66,24.69,7.66,24.88,0,.55-.39,1.12-.87,1.12m19.4-56.48a1.24,1.24,0,0,0-1.1-.89H187a1.26,1.26,0,0,0-1.1.88s-29.21,96.42-29.21,96.6a.86.86,0,0,0,.87.87h34.93a.89.89,0,0,0,.54-.66l4.07-13a.88.88,0,0,1,.79-.56l32.23,0a1,1,0,0,1,.79.58l4.16,13a.94.94,0,0,0,.54.68L270,224a.85.85,0,0,0,.88-.84c0-.17-29.92-96.61-29.92-96.61m99.56,39.36H319a.84.84,0,0,1-.57-.81V154.27a.85.85,0,0,1,.57-.82h19.68c2.29,0,6.92,1.14,6.92,6.43s-5.13,6-5.13,6m102.9-8.38H492V125.63H429.48c-5.85,0-14.08,3-18.79,6.52s-11.55,11.46-11.55,22.44,6.67,19.53,6.67,19.53c3.42,4.23,12,13.06,12,13.06a1.16,1.16,0,0,1,.31.79,1.2,1.2,0,0,1-1.2,1.2H368.79c-5.86,0-6.26-2.35-6.26-2.69,0-.6.73-1,.73-1a56.76,56.76,0,0,0,6.68-4.55c9.51-7.41,10.66-17.57,10.66-23A29.43,29.43,0,0,0,370,134.36c-9.76-8.47-22.13-8.7-22.13-8.7H279.17v97.77a.59.59,0,0,0,.6.56H318V196.56c0-.48.74,0,.74,0l19.93,20c7.08,7.16,18.8,7.41,18.8,7.41l75.33,0a30.87,30.87,0,0,0,22.53-51.5c-2.11-2.55-10.51-11.44-12.26-13.29a.9.9,0,0,1-.34-.71,1,1,0,0,1,.62-.95M139.21,224a.56.56,0,0,0,.52-.47s29.6-97.21,29.6-97.3a.56.56,0,0,0-.4-.58H132.44c-.18,0-.3.15-.34.34,0,0-7.55,25.28-7.55,25.3,0,.2-.16.33-.34.33a.4.4,0,0,1-.36-.33L116,126a.37.37,0,0,0-.34-.33H75.32a.37.37,0,0,0-.26.24L68,151.26c0,.22-.15.35-.35.35a.35.35,0,0,1-.34-.3l-7.51-25.37a.36.36,0,0,0-.3-.31H20.58a.59.59,0,0,0-.57.59s0,.15,0,.15l30,97.15a.56.56,0,0,0,.52.47h32.3a.64.64,0,0,0,.44-.48s11.24-36.15,11.24-36.15c.07-.22.16-.35.34-.35s.3.16.35.34l11,36.31a.47.47,0,0,0,.44.32h32.56M111.11,20c-5.86,0-14.07,3-18.79,6.52S80.78,38,80.78,49s6.66,19.53,6.66,19.53c3.42,4.23,12,13.12,12,13.12a1.16,1.16,0,0,1,.31.78,1.2,1.2,0,0,1-1.2,1.21H20v34.76h94.46A29.74,29.74,0,0,0,144.87,88,30.41,30.41,0,0,0,137,66.78c-2.11-2.55-10.5-11.38-12.26-13.22a.94.94,0,0,1-.33-.72,1,1,0,0,1,.62-1H170.5v66.47h35V52.06h42.46V20ZM416.18,60.27H394.72a.83.83,0,0,1-.57-.81V48.64a.85.85,0,0,1,.57-.82h19.68c2.28,0,6.91,1.14,6.91,6.43s-5.12,6-5.12,6m28.31,23.27c-5.85,0-6.26-2.35-6.26-2.69,0-.6.72-1,.72-1a55.88,55.88,0,0,0,6.68-4.55c9.52-7.41,10.66-17.57,10.66-23a29.44,29.44,0,0,0-10.58-23.57C436,20.27,423.59,20,423.59,20H354.87v97.8a.59.59,0,0,0,.6.56h38.25V91c0-.5.74,0,.74,0l19.93,20c7.08,7.16,18.79,7.41,18.79,7.41H492V83.54ZM299.08,77.37H284.69c-.54,0-.87-.57-.87-1.12,0-.2,7.65-24.87,7.65-24.87.28-.93.35-1,.41-1h0c.05,0,.13,0,.4,1,0,0,7.66,24.67,7.66,24.87,0,.55-.35,1.12-.87,1.12m19.36-56.5a1.19,1.19,0,0,0-1.1-.87H264.5a1.21,1.21,0,0,0-1.1.86s-29.18,96.44-29.18,96.62a.87.87,0,0,0,.87.87H270a.86.86,0,0,0,.56-.66l4.07-13a.9.9,0,0,1,.79-.55h32.21a1,1,0,0,1,.81.56l4.16,13a.94.94,0,0,0,.54.68l34.37,0a.85.85,0,0,0,.87-.85c0-.16-29.95-96.63-29.95-96.63" transform="translate(-20 -20)"/>
</svg>
